<?xml version="1.0" encoding="UTF-8" standalone="no"?>
<!-- Created with Inkscape (http://www.inkscape.org/) -->

<svg
   version="1.1"
   id="svg1"
   width="24"
   height="24"
   viewBox="0 0 24 24"
   sodipodi:docname="maskable_icon_x24-2.svg"
   inkscape:version="1.4 (e7c3feb100, 2024-10-09)"
   xmlns:inkscape="http://www.inkscape.org/namespaces/inkscape"
   xmlns:sodipodi="http://sodipodi.sourceforge.net/DTD/sodipodi-0.dtd"
   xmlns="http://www.w3.org/2000/svg"
   xmlns:svg="http://www.w3.org/2000/svg">
  <defs
     id="defs1" />
  <sodipodi:namedview
     id="namedview1"
     pagecolor="#ffffff"
     bordercolor="#000000"
     borderopacity="0.25"
     inkscape:showpageshadow="2"
     inkscape:pageopacity="0.0"
     inkscape:pagecheckerboard="0"
     inkscape:deskcolor="#d1d1d1"
     inkscape:zoom="12.418563"
     inkscape:cx="13.125512"
     inkscape:cy="20.171416"
     inkscape:window-width="2560"
     inkscape:window-height="1052"
     inkscape:window-x="0"
     inkscape:window-y="0"
     inkscape:window-maximized="1"
     inkscape:current-layer="g1" />
  <rect
     style="fill:#a0d4a0;fill-opacity:1;stroke:#9bc89f;stroke-opacity:1;stroke-width:0;stroke-dasharray:none"
     id="rect33"
     width="24"
     height="24"
     x="0"
     y="0" />
  <g
     inkscape:groupmode="layer"
     inkscape:label="Image"
     id="g1">
    <g
       id="g2">
      <path
         style="fill:#fdfdfd"
         d="M 0,12 V 0 H 12 24 V 12 24 H 12 0 Z m 23,0 V 1 H 12 1 v 11 11 h 11 11 z"
         id="path17" />
      <path
         style="fill:#ebefa6"
         d="M 10,13.5 C 10,13.225 10.225,13 10.5,13 10.775,13 11,13.225 11,13.5 11,13.775 10.775,14 10.5,14 10.225,14 10,13.775 10,13.5 Z M 8,9.5 C 8,9.225 8.225,9 8.5,9 8.775,9 9,9.225 9,9.5 9,9.775 8.775,10 8.5,10 8.225,10 8,9.775 8,9.5 Z M 6,7.0313848 V 6.0627696 L 4.4886594,6.6427254 2.9773188,7.2226812 3.5956482,5.6113406 4.2139776,4 H 2.6069888 1 V 2.5 1 H 1.9285714 C 2.4392857,1 3.4643051,1.6071622 4.2063923,2.3492494 L 5.5556417,3.6984989 7.7574498,3.5362872 C 8.9684442,3.4470708 10.305925,2.9927621 10.729629,2.5267124 L 11.5,1.6793493 10.319098,2.3559866 9.1381966,3.0326238 8.5100813,2.0163119 7.881966,1 H 9.8339942 11.786022 L 12.361626,2.5 12.93723,4 H 11.468615 10 L 8,6 6,8 Z"
         id="path16" />
      <path
         style="fill:#d4eaa5"
         d="M 7.7943892,10.838071 6.0887785,8.702633 7.079573,6.8513165 C 8.4291359,4.3296352 8.8758351,4.5267707 8.5494571,7.5 L 8.2750265,10 h 0.755498 c 0.4155238,0 1.0145195,0.675 1.3311015,1.5 L 10.93723,13 10.218615,12.986755 C 9.8233768,12.97947 8.7324752,12.012562 7.7943892,10.838071 Z M 4.5,7 C 4.8399187,6.45 5.343034,6 5.618034,6 5.893034,6 5.8399187,6.45 5.5,7 5.1600813,7.55 4.656966,8 4.381966,8 4.106966,8 4.1600813,7.55 4.5,7 Z M 3,5.5 C 3,5.225 3.225,5 3.5,5 3.775,5 4,5.225 4,5.5 4,5.775 3.775,6 3.5,6 3.225,6 3,5.775 3,5.5 Z M 1,4.5 C 1,4.225 1.225,4 1.5,4 1.775,4 2,4.225 2,4.5 2,4.775 1.775,5 1.5,5 1.225,5 1,4.775 1,4.5 Z m 8,-1 C 9,3.225 9.225,3 9.5,3 9.775,3 10,3.225 10,3.5 10,3.775 9.775,4 9.5,4 9.225,4 9,3.775 9,3.5 Z M 12.666667,3.3333333 C 11.734534,2.4012006 11.83462,1 12.833333,1 h 0.833334 v 1.5 c 0,1.6993518 -0.07308,1.7602525 -1,0.8333333 z"
         id="path15" />
      <path
         style="fill:#cee99e"
         d="M 11.333601,16.42715 10.18817,14 h 0.838527 c 0.869341,0 2.424776,3.881861 1.804126,4.502511 -0.193485,0.193484 -0.867234,-0.740428 -1.497222,-2.075361 z M 13,14.5 C 13,14.225 13.225,14 13.5,14 13.775,14 14,14.225 14,14.5 14,14.775 13.775,15 13.5,15 13.225,15 13,14.775 13,14.5 Z M 7.3333333,11.333333 8,10.666667 8.6666667,11.333333 9.3333333,12 H 8 6.6666667 Z M 10,11.5 C 10,11.225 10.225,11 10.5,11 10.775,11 11,11.225 11,11.5 11,11.775 10.775,12 10.5,12 10.225,12 10,11.775 10,11.5 Z M 3.2001514,7.9488855 C 2.5400681,6.8919242 2.0285238,5.4585317 2.0633863,4.7635688 L 2.1267726,3.5 3.0549277,5.8142447 3.9830829,8.1284893 4.9915414,7.5052277 6,6.881966 v 1 c 0,0.55 -0.3599319,1.2224501 -0.7998486,1.4943337 L 4.4003027,9.8706333 Z M 9,9.5 C 9,9.225 9.225,9 9.5,9 9.775,9 10,9.225 10,9.5 10,9.775 9.775,10 9.5,10 9.225,10 9,9.775 9,9.5 Z M 8,6.5 C 8,6.225 8.225,6 8.5,6 8.775,6 9,6.225 9,6.5 9,6.775 8.775,7 8.5,7 8.225,7 8,6.775 8,6.5 Z m 2,-2 C 10,4.225 10.225,4 10.5,4 10.775,4 11,4.225 11,4.5 11,4.775 10.775,5 10.5,5 10.225,5 10,4.775 10,4.5 Z"
         id="path14" />
      <path
         style="fill:#aadaa6"
         d="M 14,18.5 C 14,18.225 14.225,18 14.5,18 14.775,18 15,18.225 15,18.5 15,18.775 14.775,19 14.5,19 14.225,19 14,18.775 14,18.5 Z m -5,-4 C 9,14.225 9.225,14 9.5,14 9.775,14 10,14.225 10,14.5 10,14.775 9.775,15 9.5,15 9.225,15 9,14.775 9,14.5 Z m -5,-3 C 4,11.225 4.225,11 4.5,11 4.775,11 5,11.225 5,11.5 5,11.775 4.775,12 4.5,12 4.225,12 4,11.775 4,11.5 Z m 2,0 C 6,11.225 6.225,11 6.5,11 6.775,11 7,11.225 7,11.5 7,11.775 6.775,12 6.5,12 6.225,12 6,11.775 6,11.5 Z M 1,8.059017 C 1,4.3465872 1.5933512,4.0924222 2.2493135,7.5238672 L 2.7317812,10.047734 1.8658906,10.582884 1,11.118034 Z M 9,5.5 C 9,5.225 9.225,5 9.5,5 9.775,5 10,5.225 10,5.5 10,5.775 9.775,6 9.5,6 9.225,6 9,5.775 9,5.5 Z m 3,0 C 12,5.225 12.225,5 12.5,5 12.775,5 13,5.225 13,5.5 13,5.775 12.775,6 12.5,6 12.225,6 12,5.775 12,5.5 Z M 15.5,4 14.881966,3 H 16.5 18.118034 L 17.5,4 c -0.339919,0.55 -0.789919,1 -1,1 -0.210081,0 -0.660081,-0.45 -1,-1 z M 14,1.5 C 14,1.225 14.225,1 14.5,1 14.775,1 15,1.225 15,1.5 15,1.775 14.775,2 14.5,2 14.225,2 14,1.775 14,1.5 Z"
         id="path13" />
      <path
         style="fill:#b1d89c"
         d="M 12,19.5 C 12,19.225 12.225,19 12.5,19 12.775,19 13,19.225 13,19.5 13,19.775 12.775,20 12.5,20 12.225,20 12,19.775 12,19.5 Z m 1,-2 C 13,17.225 13.225,17 13.5,17 13.775,17 14,17.225 14,17.5 14,17.775 13.775,18 13.5,18 13.225,18 13,17.775 13,17.5 Z M 11.314423,13.25 C 10.971879,12.2875 10.502632,11.05 10.271651,10.5 10.04067,9.95 10.560056,10.373508 11.425843,11.44113 12.997931,13.379708 13.472687,15 12.468615,15 12.176354,15 11.656967,14.2125 11.314423,13.25 Z M 9,13.5 C 9,13.225 9.225,13 9.5,13 9.775,13 10,13.225 10,13.5 10,13.775 9.775,14 9.5,14 9.225,14 9,13.775 9,13.5 Z M 6.3333333,12.333333 7,11.666667 7.6666667,12.333333 8.3333333,13 H 7 5.6666667 Z M 3.8724447,10.75 C 5.4452038,8.7445798 7,8.4545883 7,10.166667 v 1.166666 L 6.3420093,10.675343 5.6840185,10.017352 4.0920093,11.258676 2.5,12.5 Z M 2,7.940983 V 6.881966 L 3,7.5 C 3.55,7.8399187 4,8.3164763 4,8.559017 4,8.8015576 3.55,9 3,9 2.45,9 2,8.5234424 2,7.940983 Z M 9.0789474,7.4166667 9.1578947,5.5 9.683114,6.8125 10.208333,8.125 9.6041667,8.7291667 9,9.3333333 Z M 3,4.5 C 3,4.225 3.225,4 3.5,4 3.775,4 4,4.225 4,4.5 4,4.775 3.775,5 3.5,5 3.225,5 3,4.775 3,4.5 Z M 11.333333,4.3333333 12,3.6666667 12.666667,4.3333333 13.333333,5 H 12 10.666667 Z M 13.584097,3.3585565 12.954216,1.7171129 14.477108,2.9810012 C 16.212353,4.4211268 16.392948,5 15.106989,5 14.615833,5 13.930531,4.2613504 13.584097,3.3585565 Z"
         id="path12" />
      <path
         style="fill:#fab571"
         d="M 4.2105734,2.4619628 2.9211468,1 H 5.4015564 7.881966 L 8.4352394,1.8952152 8.9885129,2.7904304 7.412469,3.3952152 C 5.4834,4.1354684 5.7568813,4.2151796 4.2105734,2.4619628 Z M 10,2.5 C 10,2.225 10.225,2 10.5,2 10.775,2 11,2.225 11,2.5 11,2.775 10.775,3 10.5,3 10.225,3 10,2.775 10,2.5 Z"
         id="path11" />
      <path
         style="fill:#93cea3"
         d="M 13,19.531385 V 18.06277 l 1.494256,0.5734 1.494257,0.5734 -0.553274,0.895215 C 15.130939,20.597153 14.458524,21 13.940983,21 H 13 Z M 9,16 V 14.666667 L 9.6666667,15.333333 10.333333,16 9.6666667,16.666667 9,17.333333 Z m 3.603006,0.166667 -0.515029,-0.833334 H 13.5 14.912023 l -0.515029,0.833334 C 14.113729,16.625 13.710081,17 13.5,17 13.289919,17 12.886271,16.625 12.603006,16.166667 Z M 6.5748419,14.121097 6.0114871,13.20957 7.5057436,12.63617 9,12.06277 v 0.909598 c 0,0.500279 -0.4189058,1.168496 -0.9309017,1.484927 L 7.1381966,15.032624 Z M 3,13 C 3,12.45 3.4765576,12 4.059017,12 H 5.118034 L 4.5,13 C 4.1600813,13.55 3.6835237,14 3.440983,14 3.1984424,14 3,13.55 3,13 Z M 1,12 V 10.666667 L 1.6666667,11.333333 2.3333333,12 1.6666667,12.666667 1,13.333333 Z m 11,0.5 C 12,12.225 12.225,12 12.5,12 12.775,12 13,12.225 13,12.5 13,12.775 12.775,13 12.5,13 12.225,13 12,12.775 12,12.5 Z m -9,-2 C 3,10.225 3.225,10 3.5,10 3.775,10 4,10.225 4,10.5 4,10.775 3.775,11 3.5,11 3.225,11 3,10.775 3,10.5 Z m 2,0 C 5,10.225 5.225,10 5.5,10 5.775,10 6,10.225 6,10.5 6,10.775 5.775,11 5.5,11 5.225,11 5,10.775 5,10.5 Z M 10.078947,8.4166667 10.157895,6.5 10.683114,7.8125 11.208333,9.125 10.604167,9.7291667 10,10.333333 Z M 13,4.5 C 13,4.225 13.225,4 13.5,4 13.775,4 14,4.225 14,4.5 14,4.775 13.775,5 13.5,5 13.225,5 13,4.775 13,4.5 Z M 17.5,4 C 17.839919,3.45 18.343034,3 18.618034,3 18.893034,3 18.839919,3.45 18.5,4 18.160081,4.55 17.656966,5 17.381966,5 17.106966,5 17.160081,4.55 17.5,4 Z m -3,-2 C 14.839919,1.45 15.343034,1 15.618034,1 15.893034,1 15.839919,1.45 15.5,2 15.160081,2.55 14.656966,3 14.381966,3 14.106966,3 14.160081,2.55 14.5,2 Z"
         id="path10" />
      <path
         style="fill:#89b59a"
         d="M 12,20.5 C 12,20.225 12.225,20 12.5,20 12.775,20 13,20.225 13,20.5 13,20.775 12.775,21 12.5,21 12.225,21 12,20.775 12,20.5 Z m 2.404508,-2.654508 -0.713525,-1.154509 1.154509,0.713525 C 15.998244,18.116949 16.393157,19 15.559017,19 15.316476,19 14.796948,18.480471 14.404508,17.845492 Z M 1,17.5 C 1,17.225 1.225,17 1.5,17 1.775,17 2,17.225 2,17.5 2,17.775 1.775,18 1.5,18 1.225,18 1,17.775 1,17.5 Z M 9.7562306,17.335642 11.012461,16.82918 10.351722,15.760081 9.690983,14.690983 10.845492,15.404508 C 11.480471,15.796948 12,16.541476 12,17.059017 V 18 L 10.25,17.921053 8.5,17.842105 Z M 5.3333333,14.333333 6,13.666667 6.6666667,14.333333 7.3333333,15 H 6 4.6666667 Z M 8,14.5 C 8,14.225 8.225,14 8.5,14 8.775,14 9,14.225 9,14.5 9,14.775 8.775,15 8.5,15 8.225,15 8,14.775 8,14.5 Z m 5,-1 C 13,13.225 13.225,13 13.5,13 13.775,13 14,13.225 14,13.5 14,13.775 13.775,14 13.5,14 13.225,14 13,13.775 13,13.5 Z m -8,-2 C 5,11.225 5.225,11 5.5,11 5.775,11 6,11.225 6,11.5 6,11.775 5.775,12 5.5,12 5.225,12 5,11.775 5,11.5 Z M 2.5,10 C 2.8399187,9.45 3.343034,9 3.618034,9 3.893034,9 3.8399187,9.45 3.5,10 3.1600813,10.55 2.656966,11 2.381966,11 2.106966,11 2.1600813,10.55 2.5,10 Z M 11,9.5 C 11,9.225 11.225,9 11.5,9 11.775,9 12,9.225 12,9.5 12,9.775 11.775,10 11.5,10 11.225,10 11,9.775 11,9.5 Z m 0.733333,-2.6240877 1.233334,-1.242579 0.559794,0.5597948 0.559795,0.5597947 L 12.293128,7.4357071 10.5,8.1184913 Z M 10,5.5 C 10,5.225 10.225,5 10.5,5 10.775,5 11,5.225 11,5.5 11,5.775 10.775,6 10.5,6 10.225,6 10,5.775 10,5.5 Z m 7,-3 C 17,2.225 17.225,2 17.5,2 17.775,2 18,2.225 18,2.5 18,2.775 17.775,3 17.5,3 17.225,3 17,2.775 17,2.5 Z"
         id="path9" />
      <path
         style="fill:#75ad98"
         d="M 11,18.5 C 11,18.225 11.225,18 11.5,18 11.775,18 12,18.225 12,18.5 12,18.775 11.775,19 11.5,19 11.225,19 11,18.775 11,18.5 Z M 6,16 4.5,15.030626 6.809017,15.015313 9.118034,15 8.5,16 C 7.7568143,17.2025 7.8607356,17.2025 6,16 Z m 7,-0.5 C 13,15.225 13.225,15 13.5,15 13.775,15 14,15.225 14,15.5 14,15.775 13.775,16 13.5,16 13.225,16 13,15.775 13,15.5 Z M 3,14.59106 C 3,14.400666 3.675,13.684689 4.5,13 L 6,11.755111 v 1.015455 C 6,13.329067 5.325,14.045044 4.5,14.361626 3.675,14.678209 3,14.781454 3,14.59106 Z M 2,12.5 C 2,12.225 2.225,12 2.5,12 2.775,12 3,12.225 3,12.5 3,12.775 2.775,13 2.5,13 2.225,13 2,12.775 2,12.5 Z m 9,-4 C 11,8.225 11.225,8 11.5,8 11.775,8 12,8.225 12,8.5 12,8.775 11.775,9 11.5,9 11.225,9 11,8.775 11,8.5 Z M 13.404508,5.8454915 12.690983,4.690983 13.845492,5.4045085 C 14.480471,5.7969475 15,6.3164763 15,6.559017 15,7.3931566 14.116949,6.9982441 13.404508,5.8454915 Z M 11,5.5 C 11,5.225 11.225,5 11.5,5 11.775,5 12,5.225 12,5.5 12,5.775 11.775,6 11.5,6 11.225,6 11,5.775 11,5.5 Z M 18.333333,3.5439887 V 2.0879773 l 0.849646,0.5251097 0.849645,0.5251096 -0.575329,0.9309017 C 18.64867,5.3774802 18.333333,5.2301561 18.333333,3.5439887 Z m -3,-1.2106554 L 16,1.6666667 16.666667,2.3333333 17.333333,3 H 16 14.666667 Z"
         id="path8" />
      <path
         style="fill:#7a87b2"
         d="m 1.1361821,20.25 0.136182,-2.75 0.4259438,2.193338 0.4259437,2.193339 3.6878742,0.388558 L 9.5,22.663794 5.25,22.831897 1,23 Z M 22,22.5 C 22,22.225 22.225,22 22.5,22 22.775,22 23,22.225 23,22.5 23,22.775 22.775,23 22.5,23 22.225,23 22,22.775 22,22.5 Z M 1.1578947,15 v -2.5 l 0.504386,1.25 c 0.2774123,0.6875 0.2774123,1.8125 0,2.5 L 1.1578947,17.5 Z M 22,4.5 C 22,4.225 22.225,4 22.5,4 22.775,4 23,4.225 23,4.5 23,4.775 22.775,5 22.5,5 22.225,5 22,4.775 22,4.5 Z M 16.75,1.3377193 c 0.6875,-0.2774123 1.8125,-0.2774123 2.5,0 l 1.25,0.504386 H 18 15.5 Z M 22,1.5 C 22,1.225 22.225,1 22.5,1 22.775,1 23,1.225 23,1.5 23,1.775 22.775,2 22.5,2 22.225,2 22,1.775 22,1.5 Z"
         id="path7" />
      <path
         style="fill:#7d79b5"
         d="m 15.711721,22.273568 6.211721,-0.363203 0.350305,-8.457924 0.350305,-8.4579242 -0.06203,8.7527412 L 22.5,22.5 16,22.568385 9.5,22.636771 Z M 21.210573,2.3991408 19.921147,1 h 0.980409 c 1.038441,0 2.541728,1.9022132 1.94858,2.4656719 -0.192575,0.1829353 -0.930378,-0.2970037 -1.639563,-1.0665311 z"
         id="path6" />
      <path
         style="fill:#678f94"
         d="m 14.5,21 c 0.339919,-0.55 0.843034,-1 1.118034,-1 0.275,0 0.221885,0.45 -0.118034,1 -0.339919,0.55 -0.843034,1 -1.118034,1 -0.275,0 -0.221885,-0.45 0.118034,-1 z M 8.4588815,17.933469 c -0.3625339,-0.586592 -0.4446839,-1.281 -0.1825556,-1.543128 0.2621283,-0.262129 0.7430661,0.21781 1.0687507,1.066531 0.6761844,1.762107 0.099854,2.072058 -0.8861951,0.476597 z M 10,16.5 C 10,16.225 10.225,16 10.5,16 10.775,16 11,16.225 11,16.5 11,16.775 10.775,17 10.5,17 10.225,17 10,16.775 10,16.5 Z M 14.333333,16.333333 15,15.666667 15.666667,16.333333 16.333333,17 H 15 13.666667 Z M 2.0789474,14.416667 2.1578947,12.5 2.683114,13.8125 3.2083333,15.125 2.6041667,15.729167 2,16.333333 Z M 4,15 V 13.666667 L 4.6666667,14.333333 5.3333333,15 4.6666667,15.666667 4,16.333333 Z M 14,14.5 C 14,14.225 14.225,14 14.5,14 14.775,14 15,14.225 15,14.5 15,14.775 14.775,15 14.5,15 14.225,15 14,14.775 14,14.5 Z M 2,11.5 C 2,11.225 2.225,11 2.5,11 2.775,11 3,11.225 3,11.5 3,11.775 2.775,12 2.5,12 2.225,12 2,11.775 2,11.5 Z M 11.5,11 10.881966,10 H 12.440983 14 v 1 c 0,0.55 -0.423442,1 -0.940983,1 C 12.541476,12 11.839919,11.55 11.5,11 Z M 10,6.5 C 10,6.225 10.225,6 10.5,6 10.775,6 11,6.225 11,6.5 11,6.775 10.775,7 10.5,7 10.225,7 10,6.775 10,6.5 Z m 6,-1 C 16,5.225 16.225,5 16.5,5 16.775,5 17,5.225 17,5.5 17,5.775 16.775,6 16.5,6 16.225,6 16,5.775 16,5.5 Z M 19.333333,3.5439887 V 2.0879773 l 0.833334,0.5150284 C 20.625,2.8862712 21,3.5414763 21,4.059017 21,4.5765576 20.625,5 20.166667,5 h -0.833334 z"
         id="path5" />
      <path
         style="fill:#5365a5"
         d="m 2.0153128,20.25 c 0.00842,-0.9625 0.402172,-2.360543 0.875,-3.106763 L 3.75,15.786475 4.4440983,16.909549 5.1381966,18.032624 5.9557915,17.527322 6.7733863,17.022021 8,18.5 l 1.2266137,1.477979 0.8175953,-0.505301 0.817594,-0.505302 0.723607,1.170821 0.723607,1.17082 -1.08541,-0.67082 -1.08541,-0.670821 L 9.5100813,20.983688 8.881966,22 H 5.440983 2 Z M 15,13.5 C 15,13.225 15.225,13 15.5,13 15.775,13 16,13.225 16,13.5 16,13.775 15.775,14 15.5,14 15.225,14 15,13.775 15,13.5 Z M 12.787985,8.9788224 11.07597,5.9702901 13.165159,7.0883903 15.254348,8.2064904 16.111861,6.8532452 16.969374,5.5 l 0.0017,1 c 0.0031,1.8890628 -1.204744,5.499996 -1.837664,5.493677 -0.348353,-0.0035 -1.403776,-1.360162 -2.345384,-3.0148546 z M 14,5.5 C 14,5.225 14.225,5 14.5,5 14.775,5 15,5.225 15,5.5 15,5.775 14.775,6 14.5,6 14.225,6 14,5.775 14,5.5 Z"
         id="path4" />
      <path
         style="fill:#586d96"
         d="M 12.333333,21.333333 13,20.666667 13.666667,21.333333 14.333333,22 H 13 11.666667 Z M 7.8708168,18.344344 6.7733863,17.022021 5.9557915,17.527322 5.1381966,18.032624 4.4440983,16.909549 3.75,15.786475 2.798869,17.143237 1.847738,18.5 2.2776126,17 2.7074872,15.5 4.6037436,15.840254 c 1.042941,0.187139 2.7310008,1.087139 3.751244,2 1.0202431,0.91286 2.0702434,1.509746 2.3333334,1.326413 0.26309,-0.183334 0.665846,-0.145834 0.895012,0.08333 0.229167,0.229167 -0.265477,0.416667 -1.099209,0.416667 -0.8337323,0 -2.0097204,-0.595046 -2.6133072,-1.322323 z M 16,19.5 C 16,19.225 16.225,19 16.5,19 16.775,19 17,19.225 17,19.5 17,19.775 16.775,20 16.5,20 16.225,20 16,19.775 16,19.5 Z m -1,-2 C 15,17.225 15.225,17 15.5,17 15.775,17 16,17.225 16,17.5 16,17.775 15.775,18 15.5,18 15.225,18 15,17.775 15,17.5 Z m 0,-2 C 15,15.225 15.225,15 15.5,15 15.775,15 16,15.225 16,15.5 16,15.775 15.775,16 15.5,16 15.225,16 15,15.775 15,15.5 Z M 13.5,13 12.881966,12 h 1.059017 C 14.523442,12 15,12.45 15,13 15,13.55 14.801558,14 14.559017,14 14.316476,14 13.839919,13.55 13.5,13 Z M 12,9 V 7.6666667 L 12.666667,8.3333333 13.333333,9 12.666667,9.6666667 12,10.333333 Z M 14.638374,6.5 C 15.375404,4.57933 16,4.57933 16,6.5 V 8 H 15.031385 14.06277 Z M 17.582949,7.1342147 16.799729,5.8669377 17.399864,5.2668022 18,4.6666667 18.604167,5.2708333 c 0.332291,0.3322917 0.414679,1.1726273 0.183084,1.8674125 L 18.366169,8.4014916 Z M 21,4.5 C 21,4.225 21.225,4 21.5,4 21.775,4 22,4.225 22,4.5 22,4.775 21.775,5 21.5,5 21.225,5 21,4.775 21,4.5 Z"
         id="path3" />
      <path
         style="fill:#5857a2"
         d="m 9.5100813,20.983688 0.6281157,-1.016312 0.930901,0.575329 C 12.456142,21.399945 12.197509,22 10.440983,22 H 8.881966 Z m 6.1910957,-0.08487 1.101177,-1.101177 -0.703282,-2.648823 C 15.290501,14.10344 15.307888,13.511334 16.317536,9.7091018 L 17.058634,6.9182036 18.029317,7.5181188 19,8.118034 V 6.559017 5 H 20.5 22 V 13.5 22 H 18.3 14.6 Z M 20.5,3 19.881966,2 h 1.059017 C 21.523442,2 22,2.45 22,3 22,3.55 21.801558,4 21.559017,4 21.316476,4 20.839919,3.55 20.5,3 Z"
         id="path2" />
    </g>
    <rect
       style="fill:#a0d4a0;fill-opacity:1;stroke:#9bc89f;stroke-opacity:1"
       id="rect34"
       width="0.2846975"
       height="0.17081851"
       x="33.195728"
       y="9.8220644" />
  </g>
</svg>
